<svg xmlns="http://www.w3.org/2000/svg" viewBox="0 0 24 24" id="moon"><path d="M16.74443,10.57645l.67588-.36467-.67588-.36467a4.41006,4.41006,0,0,1-1.787-1.787l-.36465-.67587-.36465.67587a4.41,4.41,0,0,1-1.787,1.787l-.67588.36467.67588.36467a4.41,4.41,0,0,1,1.787,1.787l.36465.67588.36465-.67588A4.41006,4.41006,0,0,1,16.74443,10.57645ZM12,14.12462l-.25942-.14a1.69266,1.69266,0,0,1-.68594-.68592l-.14-.25943-.14.25943a1.69278,1.69278,0,0,1-.68594.68592l-.25942.14.25942.14a1.69281,1.69281,0,0,1,.68594.68593l.14.25943.14-.25943a1.69269,1.69269,0,0,1,.68594-.68593Zm6.73921,1.93088.179-.09659-.179-.0966a1.1679,1.1679,0,0,1-.47334-.47333l-.09658-.179-.09663.179a1.168,1.168,0,0,1-.47334.47333l-.179.0966.179.09659a1.168,1.168,0,0,1,.47334.47333l.09663.179.09658-.179A1.16784,1.16784,0,0,1,18.73921,16.0555ZM0,10.96656a13.035,13.035,0,0,0,24,7.04675A13.03662,13.03662,0,0,1,3.921,7.04567,12.97239,12.97239,0,0,1,5.988,0,13.02457,13.02457,0,0,0,0,10.96656Z"></path></svg>