<svg xmlns="http://www.w3.org/2000/svg" viewBox="0 0 64 64" id="rings"><path d="M30.254 19.817a2.47 2.47 0 0 0 3.493 0l7.05-6.675a5.238 5.238 0 1 0-7.408-7.408L32 7.124l-1.389-1.389a5.238 5.238 0 1 0-7.408 7.408l7.051 6.674zm25.725-7.155a2.381 2.381 0 1 0-.222-4.758l-.892.041-.041-.892a2.381 2.381 0 1 0-4.758.222l.263 5.65 5.65-.263zm3.02 5.264a1.836 1.836 0 0 0-1.919 1.749l-.032.688-.688-.032a1.836 1.836 0 1 0-.17 3.668l4.355.202.202-4.355a1.835 1.835 0 0 0-1.748-1.92z"></path><circle cx="60.75" cy="4.174" r="1.25"></circle><circle cx="49.5" cy="17.924" r="1.25"></circle><path d="m8.021 12.662 5.65.263.263-5.65a2.382 2.382 0 0 0-4.758-.222l-.042.892-.892-.041a2.382 2.382 0 0 0-2.49 2.268 2.383 2.383 0 0 0 2.269 2.49zm1.537 9.417a1.836 1.836 0 0 0-1.919-1.749l-.688.032-.031-.687a1.836 1.836 0 1 0-3.668.17l.202 4.355 4.355-.202a1.835 1.835 0 0 0 1.749-1.919z"></path><circle cx="3.25" cy="4.174" r="1.25"></circle><circle cx="14.5" cy="17.924" r="1.25"></circle><path d="M26.933 55.116c-1.566.636-3.222.96-4.933.96-7.237 0-13.125-5.888-13.125-13.125S14.763 29.826 22 29.826a13.045 13.045 0 0 1 5.412 1.169 13.206 13.206 0 0 1 5.036 4.023c.037.039.07.081.096.127a13.052 13.052 0 0 1 2.58 7.806 13.01 13.01 0 0 1-2.34 7.481 11.95 11.95 0 0 0 3.904 3.138 17.949 17.949 0 0 0 3.436-10.619c0-9.994-8.131-18.125-18.125-18.125S3.875 32.957 3.875 42.951 12.006 61.076 22 61.076c3.11 0 6.144-.794 8.835-2.299a19.532 19.532 0 0 1-3.902-3.661z"></path><path d="M42 24.826c-3.11 0-6.144.794-8.835 2.299a19.537 19.537 0 0 1 3.903 3.661 13.03 13.03 0 0 1 4.933-.96c7.237 0 13.125 5.888 13.125 13.125S49.237 56.076 42 56.076a13.045 13.045 0 0 1-5.415-1.17 13.2 13.2 0 0 1-5.034-4.023.641.641 0 0 1-.095-.126 13.054 13.054 0 0 1-2.581-7.807c0-2.703.808-5.279 2.34-7.481a11.95 11.95 0 0 0-3.904-3.138 17.947 17.947 0 0 0-3.436 10.619c0 9.994 8.131 18.125 18.125 18.125s18.125-8.131 18.125-18.125S51.994 24.826 42 24.826z"></path></svg>