<svg xmlns="http://www.w3.org/2000/svg" width="24" height="24" viewBox="0 0 24 24" id="suit-tie"><path d="M15,3a2,2,0,0,1,2,2V8.9194A1,1,0,0,1,15.3753,9.7L12,7l3.5314-2.8251A.9717.9717,0,0,0,15,4H9a.9717.9717,0,0,0-.5314.1749L12,7,8.6247,9.7A1,1,0,0,1,7,8.9194V5A2,2,0,0,1,9,3Zm6,6V19a2,2,0,0,1-2,2H5a2,2,0,0,1-2-2V9A2,2,0,0,1,5,7H6.5V8.9189a1.5,1.5,0,0,0,2.437,1.1719L12,7.6406l3.0635,2.45A1.5,1.5,0,0,0,17.5,8.9189V7H19A2,2,0,0,1,21,9Zm-10.5109.4891L12,11l1.5109-1.5109L12,8.28Zm3.4048,4.9852-.7826-3.8784L12,11.707l-1.1136-1.1134-.7807,3.881a1,1,0,0,0,.2732.9043l1.2675,1.2675a.5.5,0,0,0,.7072,0l1.2672-1.2672A1,1,0,0,0,13.8939,14.4743Z"></path></svg>