<svg xmlns="http://www.w3.org/2000/svg" width="24" height="24" viewBox="0 0 24 24" id="user-bride"><path d="m17.9996,20.9197v.8303H5.9996v-.8303c0-1.6245,1.2164-3.0806,2.8387-3.1655.7386-.0386,1.4227.1899,1.9642.5978.7104.535,1.6837.535,2.3942,0,.5416-.4078,1.2256-.6364,1.9642-.5978,1.6223.085,2.8387,1.541,2.8387,3.1655Zm-1-5.6697l-1.9902.0024c-.1184-.0565-.3748-.5751-.4741-1.7897,1.1843-.8114,1.9643-2.1718,1.9643-3.7128v-2c0-1.7601-1.0251-3.2714-2.501-4.0106-.0059-1.0997-.898-1.9894-1.999-1.9894s-1.9931.8898-1.999,1.9894c-1.4759.7392-2.501,2.2505-2.501,4.0106v1.5h-1.5c-.2764,0-.5.2236-.5.5s.2236.5.5.5h2c3.4829,0,5.1621-.9614,5.9111-1.6357.5818.9267,1.1515,1.3218,1.5524,1.4961-.1833,1.7586-1.6573,3.1396-3.4636,3.1396-1.2017,0-2.263-.6096-2.8936-1.5351-.3526.0209-.7174.0351-1.1064.0351h-.0099c.3421.6826.8547,1.2618,1.4754,1.6947-.098,1.2277-.356,1.7508-.4655,1.8053h-2c-2.4814,0-4.5,2.0186-4.5,4.5v2c0,.2764.2236.5.5.5s.5-.2236.5-.5v-2c0-1.9297,1.5703-3.5,3.5-3.5h2c.7641,0,1.2417-.7734,1.4235-2.3004.491.1876,1.0189.3004,1.5765.3004.5566,0,1.084-.1147,1.5765-.3002.1824,1.527.6599,2.3002,1.4235,2.3002h2c1.9297,0,3.5,1.5703,3.5,3.5v2c0,.2764.2236.5.5.5s.5-.2236.5-.5v-2c0-2.4814-2.0186-4.5-4.5-4.5Zm3.8857-6.8477c-.8486-.6177-1.8105-1.3184-2.5449-2.8667-.6652-1.4004-1.5695-2.2257-2.4869-2.719.0342.1416.076.2803.0949.4272,1.0338.907,1.7486,2.1628,1.9709,3.5809.771,1.2051,1.6791,1.8774,2.3782,2.3862,1.04.7573,1.4707,1.0713,1.041,2.3833-.36,1.1013-1.7939,1.8079-3.5447,2.2146.6174.0822,1.204.2584,1.7477.514,1.2827-.4966,2.3669-1.2534,2.7482-2.4176.6553-2.0034-.3447-2.7319-1.4043-3.5029Zm-14.6801,5.4065c-1.7506-.4066-3.1845-1.113-3.5446-2.2141-.4292-1.313.0015-1.6265,1.0415-2.3843.6984-.5084,1.6069-1.1807,2.3777-2.3862.2224-1.4178.9372-2.6734,1.9708-3.5803.0188-.1468.0606-.2855.0948-.4269-.9172.4933-1.8212,1.3185-2.4863,2.7187-.7354,1.5483-1.6973,2.2485-2.5454,2.8667-1.0591.771-2.0591,1.4995-1.4033,3.5029.3806,1.1642,1.4645,1.921,2.7472,2.4176.5436-.2557,1.1302-.4318,1.7476-.514Z"></path></svg>