<svg xmlns="http://www.w3.org/2000/svg" enable-background="new 0 0 64 64" viewBox="0 0 64 64" id="wedding-couple"><path d="M19.91,21.88c-0.24,0.19-0.48,0.35-0.72,0.51c-0.29,0.19-0.57,0.35-0.86,0.5c-1.27,0.69-2.53,1.02-3.77,1.02
					c-1.23,0-2.45-0.32-3.65-0.99c-0.29-0.15-0.57-0.32-0.86-0.52c-0.24-0.16-0.48-0.34-0.72-0.53c-0.22-0.17-0.25-0.48-0.08-0.69
					c0.17-0.22,0.48-0.25,0.69-0.08c3.07,2.45,6.13,2.44,9.36-0.01c0.23-0.17,0.53-0.12,0.7,0.09
					C20.16,21.4,20.13,21.72,19.91,21.88z"></path><path d="M11.11 22.37l-.2.56-1 2.91C9.76 26.27 9.41 26.61 9 26.75c-.16.06-.32.09-.49.09H7.54c-.11 0-.21.02-.3.06-.27.12-.46.39-.46.7v1.06c0 .79.51 1.46 1.23 1.67.17.06.34.09.53.09.21 0 .38.13.45.31v.01c.03.05.04.12.04.18 0 .05-.01.1-.02.15-.06.2-.25.34-.47.34-.17 0-.32-.01-.48-.05-1.29-.23-2.26-1.35-2.26-2.7v-1.06c0-.56.28-1.06.69-1.38C6.76 26 7.1 25.87 7.47 25.86c.02-.01.05-.01.07-.01h.96c.21 0 .39-.13.46-.33l1.08-3.11.13-.36c.09-.26.36-.39.62-.31C11.06 21.82 11.19 22.11 11.11 22.37zM23.44 27.59v1.06c0 1.35-.94 2.45-2.22 2.7-.15.03-.3.05-.45.05 0 0 0 0-.01 0-.24 0-.42-.17-.48-.38v-.03c-.01-.02-.01-.05-.01-.07s0-.04.01-.06v-.01c-.01-.02 0-.03 0-.05v-.01c.05-.22.25-.37.47-.37.19-.01.36-.04.52-.1.7-.24 1.18-.89 1.18-1.66v-1.06c0-.23-.1-.43-.27-.58-.13-.11-.31-.18-.49-.18h-.92c-.17 0-.33-.03-.49-.07-.44-.15-.79-.47-.95-.92l-1.01-2.95-.19-.53c-.09-.26.04-.53.31-.63.26-.09.53.05.62.31l.12.35 1.08 3.13c.07.2.27.32.47.32h.96c.1 0 .19.01.28.03.39.06.74.25.98.52C23.27 26.72 23.44 27.13 23.44 27.59z"></path><path d="M22.96,24.17v2.44c0,0.27-0.22,0.49-0.49,0.49c-0.1,0-0.2-0.03-0.28-0.09c-0.13-0.09-0.22-0.24-0.22-0.4v-2.44
					c0-1.94-0.75-3.75-2.12-5.12c-1.38-1.37-3.2-2.13-5.13-2.13c-4.01,0-7.26,3.25-7.26,7.25v2.3c0,0.18-0.09,0.32-0.23,0.42
					c-0.08,0.04-0.17,0.07-0.27,0.07c-0.28,0-0.49-0.22-0.49-0.49v-2.3c0-4.54,3.69-8.23,8.24-8.23c2.2,0,4.26,0.86,5.82,2.41
					C22.1,19.9,22.96,21.97,22.96,24.17z"></path><path d="M21.98,24.17v1.71c-0.09-0.02-0.18-0.03-0.28-0.03h-0.96c-0.21,0-0.4-0.13-0.47-0.32l-1.08-3.13
					c0.24-0.16,0.48-0.32,0.72-0.51c0.22-0.17,0.26-0.48,0.1-0.7c-0.17-0.21-0.47-0.26-0.7-0.09c-3.23,2.45-6.29,2.46-9.36,0.01
					c-0.21-0.17-0.52-0.14-0.69,0.08c-0.17,0.21-0.14,0.52,0.08,0.69c0.24,0.19,0.48,0.37,0.72,0.53l-1.08,3.11
					c-0.07,0.21-0.26,0.33-0.46,0.33H7.54c-0.02,0-0.05,0-0.07,0.01v-1.69c0-4,3.25-7.25,7.26-7.25c1.93,0,3.75,0.76,5.13,2.13
					C21.23,20.42,21.98,22.23,21.98,24.17z"></path><path d="M21.28,26.34v4.31c0,0.24-0.01,0.46-0.05,0.7c-0.13,1.29-0.67,2.52-1.53,3.5l-0.67,0.78c-0.22,0.25-0.45,0.48-0.71,0.67
					c-0.31,0.27-0.64,0.48-0.98,0.65c-0.82,0.43-1.74,0.67-2.7,0.67c-0.99,0-1.96-0.26-2.81-0.73c-0.35-0.19-0.68-0.41-0.98-0.68
					c-0.22-0.17-0.41-0.36-0.6-0.58l-0.66-0.78c-0.86-0.97-1.4-2.21-1.53-3.5c-0.04-0.24-0.05-0.46-0.05-0.7v-4.31
					c0-0.28,0.22-0.49,0.49-0.49S9,26.07,9,26.34v4.39c0,0.11,0.01,0.22,0.02,0.32c0.08,1.16,0.54,2.26,1.31,3.15L11,34.98
					c0.92,1.05,2.24,1.65,3.64,1.65c1.03,0,2.03-0.32,2.85-0.92c0.02-0.02,0.05-0.04,0.08-0.06c0.27-0.2,0.51-0.42,0.73-0.68
					l0.67-0.78c0.78-0.89,1.24-2.01,1.32-3.18v-0.17c-0.01-0.02,0-0.03,0-0.05v-0.01c0.01-0.05,0.01-0.09,0.01-0.14v-4.31
					c0-0.27,0.2-0.47,0.45-0.49h0.04C21.05,25.85,21.28,26.07,21.28,26.34z"></path><path d="M18.32,36.07v2.54c0,0.08-0.02,0.16-0.06,0.23c-0.04,0.08-0.09,0.17-0.15,0.24c-0.01,0-0.01,0-0.01,0
					c-0.48,0.72-1.34,1.2-2.41,1.38c-0.29,0.06-0.59,0.09-0.91,0.09h-0.13c-0.1,0-0.2,0-0.3-0.02c-0.28,0-0.56-0.04-0.85-0.1
					c-0.99-0.19-1.96-0.63-2.46-1.35c-0.06-0.07-0.11-0.16-0.15-0.24c-0.04-0.07-0.06-0.15-0.06-0.23v-2.63
					c0-0.27,0.23-0.49,0.49-0.49c0.28,0,0.49,0.23,0.49,0.49v2.49c0.4,0.61,1.53,1.05,2.75,1.08h0.08c1,0,2.17-0.28,2.68-1.08v-2.4
					c0-0.14,0.06-0.26,0.15-0.35c0.02-0.02,0.05-0.04,0.08-0.06c0.08-0.05,0.17-0.08,0.27-0.08C18.11,35.58,18.32,35.8,18.32,36.07z
					"></path><path d="M14.94,40.39l-0.15,0.15l-0.2,0.21l-2.97,2.97c-0.09,0.09-0.22,0.15-0.34,0.15c-0.03,0-0.05-0.01-0.08-0.01
					c-0.15-0.02-0.29-0.12-0.35-0.26c-0.86-1.62-1.33-2.79-1.45-3.63c-0.06-0.41-0.04-0.75,0.08-1.02c0.03-0.11,0.09-0.21,0.15-0.3
					c0.26-0.36,0.66-0.55,1.23-0.56c0.18-0.01,0.36,0,0.57,0.03c0.27,0.04,0.45,0.3,0.41,0.56c-0.04,0.27-0.29,0.45-0.56,0.41
					c-0.08-0.01-0.15-0.02-0.22-0.02c-0.32-0.03-0.56,0.02-0.64,0.14c-0.03,0.03-0.05,0.08-0.06,0.14c0,0.01,0,0.02,0,0.02
					c-0.02,0.04-0.03,0.08-0.03,0.14c0.01,0.01,0,0.02,0,0.03c-0.01,0.42,0.21,1.28,1.07,3.01l2.12-2.13l0.72-0.73
					c0.1-0.1,0.23-0.14,0.34-0.14h0.01c0.13,0,0.25,0.05,0.34,0.14C15.13,39.89,15.13,40.2,14.94,40.39z"></path><path d="M19.79 39.97c-.12.85-.59 2.01-1.45 3.63-.08.14-.21.24-.36.26-.02 0-.05.01-.07.01-.13 0-.26-.06-.35-.15l-2.96-2.97-.23-.23-.13-.13c-.19-.2-.19-.5 0-.7.1-.1.23-.14.34-.14h.01c.13 0 .25.05.34.14l.76.76 2.09 2.1c.93-1.86 1.09-2.71 1.05-3.1-.01-.02-.01-.04-.01-.07-.02-.08-.04-.13-.07-.17-.08-.12-.32-.16-.64-.14-.01 0-.01 0-.01 0-.06 0-.13.01-.2.02-.28.04-.52-.15-.56-.41-.04-.27.15-.52.41-.56.21-.03.39-.04.56-.03.57.01.98.2 1.24.56.06.09.12.19.15.3C19.83 39.22 19.85 39.56 19.79 39.97zM13.52 40.42l-2.12 2.13c-.87-1.73-1.08-2.59-1.07-3.01 0-.01.01-.02 0-.03 0-.06.01-.1.03-.14 0 0 0-.01 0-.02.01-.06.03-.11.06-.14.08-.12.32-.17.64-.14C11.56 39.79 12.52 40.24 13.52 40.42z"></path><path d="M17.78,42.55l-2.09-2.1c1.07-0.18,1.93-0.66,2.41-1.38c0,0,0,0,0.01,0c0.32-0.02,0.56,0.02,0.64,0.14
					c0.03,0.04,0.05,0.09,0.07,0.17c0,0.03,0,0.05,0.01,0.07C18.87,39.84,18.71,40.69,17.78,42.55z"></path><path d="M29.18,47.56c0,0.13-0.05,0.26-0.15,0.35c-0.09,0.1-0.22,0.15-0.34,0.15H0.49c-0.13,0-0.26-0.05-0.35-0.15
					C0.05,47.82,0,47.69,0,47.56c0.04-1.87,0.66-3.62,1.84-5.21c0.71-0.95,1.64-1.69,2.73-2.18c0.5-0.25,1.04-0.42,1.61-0.54
					l3.3-0.69l0.3-0.06c0.27-0.06,0.52,0.12,0.58,0.38c0.01,0.03,0.01,0.06,0.01,0.08c0,0.01,0,0.02,0,0.02
					c-0.02,0.04-0.03,0.08-0.03,0.14c0.01,0.01,0,0.02,0,0.03c-0.06,0.16-0.2,0.28-0.36,0.32l-0.57,0.12L6.38,40.6
					c-0.31,0.06-0.6,0.15-0.88,0.26c-0.32,0.11-0.63,0.25-0.92,0.4c-0.77,0.41-1.44,0.99-1.95,1.68c-0.96,1.27-1.5,2.66-1.62,4.14
					h27.16c-0.13-1.48-0.67-2.87-1.62-4.14c-0.52-0.69-1.18-1.26-1.95-1.68c-0.3-0.16-0.6-0.31-0.93-0.41
					c-0.29-0.1-0.57-0.19-0.87-0.25l-3.01-0.63l-0.58-0.12c-0.2-0.04-0.34-0.21-0.37-0.4c-0.01-0.02-0.01-0.04-0.01-0.07
					c0-0.04,0-0.07,0.01-0.11c0.05-0.27,0.32-0.44,0.58-0.38l0.3,0.06l3.3,0.69c0.56,0.12,1.1,0.3,1.61,0.54
					c1.08,0.48,2.02,1.23,2.72,2.18C28.51,43.94,29.13,45.69,29.18,47.56z"></path><g><path d="M5.66,47.08H1.01c0.13-1.48,0.67-2.87,1.62-4.14c0.51-0.69,1.18-1.27,1.95-1.68C5.47,42.51,5.84,44.47,5.66,47.08z"></path><path d="M6.64,47.08c0,0.17-0.01,0.35-0.03,0.53c-0.02,0.26-0.24,0.45-0.48,0.45H6.07c-0.27-0.03-0.47-0.27-0.44-0.53
					c0.01-0.16,0.02-0.31,0.03-0.45c0.18-2.61-0.19-4.57-1.07-5.82c-0.07-0.11-0.15-0.21-0.23-0.31c-0.19-0.21-0.16-0.51,0.05-0.69
					c0.05-0.04,0.1-0.07,0.16-0.09c0.18-0.07,0.39-0.02,0.53,0.14c0.15,0.17,0.29,0.35,0.4,0.54C6.45,42.28,6.82,44.33,6.64,47.08z"></path></g><g><path d="M28.17,47.08h-4.65c-0.18-2.62,0.18-4.57,1.07-5.82c0.77,0.42,1.43,0.99,1.95,1.68C27.5,44.21,28.04,45.6,28.17,47.08z"></path><path d="M24.82,40.95c-0.08,0.1-0.16,0.2-0.23,0.31c-0.9,1.25-1.25,3.2-1.07,5.82c0.01,0.15,0.02,0.3,0.03,0.45
					c0.02,0.27-0.18,0.5-0.45,0.53h-0.04c-0.26,0-0.46-0.2-0.49-0.45c-0.02-0.18-0.03-0.35-0.03-0.53c-0.19-2.75,0.2-4.8,1.13-6.23
					c0.13-0.19,0.27-0.36,0.4-0.53c0.14-0.16,0.35-0.21,0.54-0.14c0.06,0.02,0.11,0.05,0.16,0.09C24.98,40.44,25,40.75,24.82,40.95z
					"></path></g><g><path d="M41.56,28.03h-0.43c-0.02,0-0.04,0-0.06,0.01v1.9c0.01,0.25,0.2,0.45,0.44,0.47h0.05c0.25,0,0.46-0.19,0.48-0.44
					c0-0.03,0.01-0.05,0.01-0.08v-2.35C42.05,27.81,41.83,28.03,41.56,28.03z M41.07,29.87v0.07c0.01,0.25,0.2,0.45,0.44,0.47h0.05
					c0.25,0,0.46-0.19,0.48-0.44c0-0.03,0.01-0.05,0.01-0.08v-2.12C41.47,28.34,41.14,29.04,41.07,29.87z M41.07,29.87v0.07
					c0.01,0.25,0.2,0.45,0.44,0.47h0.05c0.25,0,0.46-0.19,0.48-0.44c0-0.03,0.01-0.05,0.01-0.08v-2.12
					C41.47,28.34,41.14,29.04,41.07,29.87z M41.07,29.87v0.07c0.01,0.25,0.2,0.45,0.44,0.47h0.05c0.25,0,0.46-0.19,0.48-0.44
					c0-0.03,0.01-0.05,0.01-0.08v-2.12C41.47,28.34,41.14,29.04,41.07,29.87z M41.07,29.87v0.07c0.01,0.25,0.2,0.45,0.44,0.47h0.05
					c0.25,0,0.46-0.19,0.48-0.44c0-0.03,0.01-0.05,0.01-0.08v-2.12C41.47,28.34,41.14,29.04,41.07,29.87z M41.07,29.87v0.07
					c0.01,0.25,0.2,0.45,0.44,0.47h0.05c0.25,0,0.46-0.19,0.48-0.44c0-0.03,0.01-0.05,0.01-0.08v-2.12
					C41.47,28.34,41.14,29.04,41.07,29.87z M52.82,21.05c-0.31-0.3-0.63-0.57-0.98-0.81c-1.1-0.76-2.44-1.21-3.88-1.21
					c-1.45,0-2.79,0.45-3.89,1.21c-0.35,0.24-0.68,0.51-0.98,0.81c-1.25,1.25-2.02,2.97-2.02,4.87v4.02c0,0.21,0.01,0.4,0.03,0.6
					c0.02,0.33,0.06,0.67,0.12,0.98c0.14,0.82,0.38,1.59,0.74,2.3c0.61,1.24,1.47,2.23,2.49,2.89c0.31,0.21,0.63,0.38,0.97,0.53
					c0.03,0.01,0.07,0.03,0.1,0.04c0.69,0.29,1.45,0.42,2.22,0.42c0.82,0,1.65-0.16,2.48-0.48c0.09-0.04,0.18-0.07,0.27-0.12
					c0.35-0.15,0.68-0.32,0.99-0.53c1.06-0.68,1.91-1.64,2.51-2.87c0.35-0.71,0.59-1.48,0.73-2.29c0.05-0.32,0.09-0.65,0.11-0.98
					c0.01-0.2,0.02-0.4,0.02-0.61v-3.91C54.84,24.02,54.06,22.3,52.82,21.05z M49.85,36.32c-1.35,0.53-2.76,0.55-3.96,0.06
					c-1.29-0.53-2.34-1.57-3.05-2.99c-0.35-0.72-0.59-1.51-0.71-2.35c0-0.03,0-0.07-0.01-0.1c-0.04-0.33-0.07-0.69-0.07-1.04v-3.97
					c0-3.26,2.65-5.91,5.91-5.91c1.31,0,2.52,0.42,3.5,1.15c1.46,1.07,2.4,2.81,2.4,4.76v3.91c0,1.27-0.26,2.43-0.76,3.46
					C52.38,34.74,51.32,35.74,49.85,36.32z M41.07,29.87v0.07c0.01,0.25,0.2,0.45,0.44,0.47h0.05c0.25,0,0.46-0.19,0.48-0.44
					c0-0.03,0.01-0.05,0.01-0.08v-2.12C41.47,28.34,41.14,29.04,41.07,29.87z M41.07,29.87v0.07c0.01,0.25,0.2,0.45,0.44,0.47h0.05
					c0.25,0,0.46-0.19,0.48-0.44c0-0.03,0.01-0.05,0.01-0.08v-2.12C41.47,28.34,41.14,29.04,41.07,29.87z M41.07,29.87v0.07
					c0.01,0.25,0.2,0.45,0.44,0.47h0.05c0.25,0,0.46-0.19,0.48-0.44c0-0.03,0.01-0.05,0.01-0.08v-2.12
					C41.47,28.34,41.14,29.04,41.07,29.87z M41.07,29.87v0.07c0.01,0.25,0.2,0.45,0.44,0.47h0.05c0.25,0,0.46-0.19,0.48-0.44
					c0-0.03,0.01-0.05,0.01-0.08v-2.12C41.47,28.34,41.14,29.04,41.07,29.87z M41.56,28.03h-0.43c-0.02,0-0.04,0-0.06,0.01v1.9
					c0.01,0.25,0.2,0.45,0.44,0.47h0.05c0.25,0,0.46-0.19,0.48-0.44c0-0.03,0.01-0.05,0.01-0.08v-2.35
					C42.05,27.81,41.83,28.03,41.56,28.03z"></path><path d="M53.86,25.92v0.2c-0.26-0.36-0.59-0.7-0.97-0.99c-1.85-1.34-2.1-2.88-2.14-3.2c0-0.07,0-0.11,0-0.11
					c-0.04-0.26-0.26-0.45-0.53-0.42c-0.27,0.02-0.46,0.24-0.45,0.5c0,0.01,0,0.06,0.01,0.14c0.02,0.46-0.03,2.51-2.62,3.69
					c-0.47,0.22-0.98,0.37-1.53,0.47c-1.62,0.3-2.82,0.83-3.57,1.58v-1.85c0-3.26,2.65-5.91,5.91-5.91c1.31,0,2.52,0.42,3.5,1.15
					C52.91,22.24,53.86,23.97,53.86,25.92z"></path><path d="M64,47.51c0.01,0.14-0.03,0.28-0.12,0.38c-0.1,0.11-0.24,0.17-0.37,0.17H32.4c-0.14,0-0.28-0.06-0.36-0.17
					c-0.1-0.11-0.14-0.25-0.13-0.38c1.8-14.52,3.2-23.59,7.37-26.54c0.05-0.04,0.1-0.08,0.15-0.11c0.43-0.29,0.9-0.5,1.38-0.64
					c0.98-0.3,2.08-0.29,3.26,0.02c0.08,0.02,0.15,0.04,0.23,0.06c0.26,0.07,0.41,0.34,0.33,0.6c-0.08,0.27-0.34,0.41-0.61,0.34
					c-0.32-0.09-0.63-0.16-0.94-0.2c-1.14-0.17-2.14,0.02-3.02,0.59c-0.03,0.01-0.05,0.03-0.08,0.05c-0.53,0.34-1.02,0.84-1.47,1.44
					c-3.06,4.12-4.3,13.75-5.55,23.96h29.98c-1.25-10.19-2.49-19.81-5.54-23.94c0,0,0,0,0-0.01c-0.45-0.61-0.95-1.09-1.48-1.45
					c-0.03-0.02-0.05-0.04-0.08-0.05c-0.89-0.57-1.88-0.76-3.02-0.59c-0.31,0.04-0.61,0.11-0.94,0.2c-0.16,0.05-0.32,0.01-0.43-0.08
					c-0.08-0.07-0.15-0.16-0.18-0.27c-0.07-0.26,0.08-0.53,0.33-0.6c0.08-0.02,0.15-0.04,0.23-0.06c1.17-0.31,2.26-0.32,3.25-0.02
					c0.49,0.14,0.96,0.35,1.39,0.64c0.05,0.03,0.1,0.07,0.15,0.11C60.8,23.92,62.2,32.99,64,47.51z"></path><path d="M45.42 37.25c-.03.53-.18 1.21-.61 1.85-.59.86-1.55 1.42-2.83 1.65-.62.12-1.1.26-1.53.42-1.59.65-2.63 1.68-3.14 3.15 0 .03-.01.05-.02.06 0 .02-.01.04-.02.06-.25.76-.34 1.63-.31 2.63 0 .15.01.3.02.45.03.28-.18.51-.45.53H36.5c-.25 0-.46-.2-.48-.45-.01-.18-.02-.36-.03-.53-.04-1.09.08-2.08.35-2.93.25-.78.62-1.46 1.13-2.05.65-.78 1.53-1.39 2.62-1.83.48-.2 1.02-.34 1.7-.47 1.02-.19 1.76-.61 2.2-1.25.46-.68.47-1.47.45-1.82-.01-.13-.02-.2-.02-.2-.06-.27.12-.52.38-.57.27-.06.53.12.58.38C45.39 36.37 45.46 36.73 45.42 37.25zM59.92 47.08c-.01.17-.02.35-.03.53-.02.26-.23.45-.48.45h-.04c-.28-.02-.47-.26-.45-.53.01-.16.02-.31.02-.45.04-.99-.06-1.87-.31-2.63-.01-.02-.02-.04-.02-.06-.01-.01-.02-.03-.02-.06-.5-1.47-1.55-2.5-3.14-3.15-.42-.17-.91-.31-1.53-.42-1.28-.24-2.24-.8-2.82-1.65-.47-.69-.61-1.44-.63-1.99-.02-.44.04-.75.04-.78.05-.27.32-.44.58-.38.27.05.44.31.38.57 0 .02-.01.04-.01.06-.07.48-.22 2.68 2.64 3.21.68.13 1.23.28 1.71.47 1.08.44 1.96 1.04 2.61 1.82v.01c.51.59.89 1.27 1.13 2.05v.01C59.84 45.01 59.96 45.99 59.92 47.08zM55.09 20.22c-.98-.3-2.08-.29-3.25.02-1.1-.76-2.44-1.21-3.88-1.21-1.45 0-2.79.45-3.89 1.21-1.18-.31-2.27-.32-3.26-.02.26-.37.53-.68.83-.93.67-.54 1.44-.75 2.35-.61.48.06.96-.1 1.28-.43 1.74-1.79 3.46-1.77 5.39.06.32.31.78.44 1.23.37.93-.14 1.7.06 2.37.61C54.57 19.54 54.84 19.85 55.09 20.22z"></path><path d="M59.57,44.14v0.05c0.02,0.28-0.19,0.51-0.45,0.53c-0.21,0.02-0.39-0.1-0.48-0.28c-0.01-0.02-0.02-0.04-0.02-0.06
					c-0.01-0.01-0.02-0.03-0.02-0.06c-0.01-0.02-0.01-0.04-0.01-0.06c-0.05-0.72-0.1-1.45-0.15-2.18v-0.01
					c-0.07-1.07-0.13-2.15-0.2-3.22c-0.39-6.64-0.81-13.46-2.39-17.23c-0.23-0.54-0.47-1.01-0.76-1.42
					c-0.25-0.37-0.52-0.68-0.83-0.93c-0.67-0.55-1.45-0.75-2.37-0.61c-0.45,0.07-0.91-0.07-1.23-0.37
					c-1.93-1.83-3.64-1.85-5.39-0.06c-0.32,0.33-0.8,0.49-1.28,0.43c-0.92-0.14-1.68,0.07-2.35,0.61c-0.3,0.25-0.57,0.55-0.83,0.93
					c-0.28,0.4-0.52,0.88-0.75,1.42c-1.59,3.78-1.99,10.59-2.39,17.23c-0.07,1.07-0.13,2.16-0.2,3.23c-0.05,0.73-0.1,1.46-0.15,2.18
					c0,0.02,0,0.04-0.01,0.06c0,0.03-0.01,0.05-0.02,0.06c0,0.02-0.01,0.04-0.02,0.06c-0.08,0.17-0.25,0.28-0.44,0.28h-0.04
					c-0.27-0.02-0.47-0.26-0.45-0.53v-0.05c0.13-1.76,0.24-3.56,0.34-5.34c0.35-5.96,0.71-11.7,1.83-15.68
					c0.23-0.8,0.48-1.52,0.77-2.16c0.47-1.03,1.04-1.87,1.73-2.43c0.88-0.72,1.92-1,3.11-0.83c0.16,0.02,0.32-0.03,0.43-0.15
					c2.12-2.17,4.46-2.16,6.77,0.03c0.1,0.1,0.26,0.15,0.41,0.12c1.19-0.18,2.24,0.1,3.13,0.82c0.7,0.57,1.27,1.4,1.74,2.44
					c0.3,0.64,0.55,1.37,0.78,2.17c0,0.01,0,0.01,0,0.01c1.12,3.99,1.47,9.72,1.82,15.66C59.33,40.58,59.44,42.38,59.57,44.14z"></path><path d="M54.84 28.93v.04c0 .25-.19.46-.45.49-.28.01-.5-.19-.52-.46 0-.03 0-.06-.01-.08-.12-1.3-.63-2.29-1.57-3.01-.94-.67-1.53-1.41-1.89-2.06-.39.95-1.2 2.02-2.84 2.77-.55.25-1.14.43-1.76.55-2.35.42-3.58 1.32-3.75 2.72 0 .03-.01.05-.01.08-.02.26-.24.44-.48.44h-.05c-.25-.02-.43-.23-.44-.47v-.07c.07-.83.4-1.53.98-2.1.76-.75 1.95-1.28 3.57-1.58.54-.1 1.05-.26 1.53-.47 2.59-1.18 2.64-3.23 2.62-3.69-.01-.08-.01-.13-.01-.14-.01-.27.19-.48.45-.5.28-.03.49.17.53.42 0 0 0 .04 0 .11.04.32.29 1.86 2.14 3.2.38.3.72.63.97.99.23.29.4.59.54.93.14.31.24.63.31.98C54.77 28.31 54.82 28.62 54.84 28.93zM54.88 47.08H40.82c.3-1.57.86-2.58 1.68-2.99.98-.5 2.44-.23 4.33.81.68.37 1.53.31 2.16-.19 1.38-1.07 2.99-1.34 4.22-.7C54.25 44.55 54.85 45.66 54.88 47.08z"></path><path d="M55.87,47.08c0.01,0.17,0.01,0.34,0,0.52c-0.01,0.25-0.22,0.46-0.47,0.46h-0.05c-0.27-0.02-0.47-0.25-0.46-0.52
					c0.01-0.16,0.01-0.32,0-0.46c-0.03-1.42-0.63-2.53-1.66-3.07c-1.23-0.64-2.85-0.37-4.22,0.7c-0.63,0.49-1.48,0.56-2.16,0.19
					c-1.89-1.03-3.35-1.31-4.33-0.81c-0.83,0.41-1.39,1.43-1.68,2.99c-0.03,0.18-0.06,0.36-0.09,0.56
					c-0.03,0.25-0.24,0.42-0.48,0.42h-0.07c-0.27-0.04-0.45-0.29-0.42-0.56c0.02-0.15,0.04-0.29,0.07-0.42
					c0.32-1.99,1.08-3.29,2.24-3.87c1.31-0.67,3.02-0.39,5.25,0.83c0.33,0.18,0.76,0.14,1.08-0.11c1.68-1.31,3.7-1.61,5.28-0.8
					C55.05,43.85,55.83,45.26,55.87,47.08z"></path><g><path d="M41.1,30.54c-0.4-0.02-0.71-0.33-0.71-0.74v-1.02c0-0.39,0.3-0.72,0.68-0.74v1.9C41.07,30.14,41.08,30.34,41.1,30.54z"></path><path d="M42.13,31.03c0,0.28-0.23,0.49-0.49,0.49h-0.51c-0.96,0-1.72-0.77-1.72-1.72v-1.02c0-0.94,0.74-1.7,1.66-1.72
					c0.02-0.01,0.04-0.01,0.06-0.01h0.43c0.27,0,0.49,0.22,0.49,0.49c0,0.28-0.23,0.49-0.49,0.49h-0.43c-0.02,0-0.04,0-0.06,0.01
					c-0.38,0.02-0.68,0.34-0.68,0.74v1.02c0,0.4,0.31,0.72,0.71,0.74h0.54c0.24,0,0.43,0.18,0.48,0.39
					C42.13,30.96,42.13,31,42.13,31.03z"></path></g><g><path d="M55.36,28.4v1.66c0,0.21-0.17,0.37-0.36,0.37h-0.18c0.01-0.2,0.02-0.4,0.02-0.61v-1.8H55
					C55.2,28.03,55.36,28.19,55.36,28.4z"></path><path d="M56.35,28.4v1.66c0,0.75-0.6,1.36-1.35,1.36h-0.71c-0.28,0-0.49-0.23-0.49-0.49c0-0.28,0.22-0.49,0.49-0.49H55
					c0.2,0,0.36-0.17,0.36-0.37V28.4c0-0.21-0.17-0.37-0.36-0.37h-0.65c-0.27,0-0.49-0.22-0.49-0.49c0-0.28,0.23-0.49,0.49-0.49H55
					C55.75,27.04,56.35,27.65,56.35,28.4z"></path></g></g></svg>